<svg fill="none" height="800" viewBox="0 0 24 24" width="800" xmlns="http://www.w3.org/2000/svg"><g stroke="#000" stroke-linecap="round" stroke-linejoin="round" stroke-width="2"><path clip-rule="evenodd" d="m7.37584 4.85915c1.27965-1.23944 2.82106-1.85915 4.62416-1.85915s3.3372.61267 4.6023 1.83803c1.2652 1.22536 1.8977 2.71126 1.8977 4.45774 0 .87323-.2254 1.87323-.6762 3.00003-.4508 1.1267-.9961 2.1831-1.6359 3.169s-1.2723 1.9084-1.8976 2.7676-1.1561 1.5422-1.5923 2.0493l-.698.7183c-.1745-.1972-.4072-.4577-.698-.7817-.2908-.3239-.8143-.9718-1.57046-1.9437-.75615-.9718-1.41778-1.9154-1.9849-2.8309-.56711-.9155-1.08333-1.9507-1.54865-3.1057-.46533-1.1549-.69799-2.169-.69799-3.04223 0-1.74648.62527-3.22534 1.87584-4.43662z" fill-rule="evenodd"/><path d="m13 9.5c0 .5523-.4477 1-1 1s-1-.4477-1-1c0-.55228.4477-1 1-1s1 .44772 1 1z"/></g></svg>