<svg height="800" viewBox="0 0 24 24" width="800" xmlns="http://www.w3.org/2000/svg"><path d="m7 4c-1.6449698 0-3 1.3550302-3 3v1.1816406c-.2250723-.0827591-.4605156-.1440867-.7128906-.1679687h-.0019532-.0019531c-.5875648-.0543492-1.1856863.0653117-1.7089843.3476562-1.40766887.7570938-1.87282035 2.4714959-1.31054692 3.8749999l1.69921872 4.25c.5213148 1.301001 1.6851327 2.217399 3.0371094 2.451172v2.0625h2v-2h10v2h2v-2.064453c1.352474-.233894 2.51686-1.148833 3.037109-2.451172l1.732422-4.269531.001953-.001953c.539153-1.34941.124535-2.9874147-1.189453-3.7773441-.469039-.2820083-1.008865-.4355469-1.554687-.4355469-.357848 0-.702705.0704493-1.027344.1894531v-1.1894531c0-1.6449698-1.35503-3-3-3zm0 2h10c.56503 0 1 .4349698 1 1v3.474609l-1.027344 2.525391h-9.941406l-1.03125-2.578125v-3.421875c0-.5650302.4349698-1 1-1zm14.027344 4c.184178 0 .350477.044449.523437.148438.396013.23807.564082.819722.363281 1.322265l-1.734374 4.269531v.001954c-.304341.761805-1.03629 1.257812-1.857422 1.257812h-12.6445316c-.8192687 0-1.5519584-.495267-1.8574219-1.255859v-.001953l-1.6992187-4.248047v-.001953c-.2113745-.527524-.023877-1.141508.4003906-1.369141l.0019531-.001953c.1841006-.09933.362686-.1364111.5742187-.117188.3463729.03278.7158842.332679.8867188.759766l1.6933594 4.236328h12.6406246l1.775391-4.365234.001953-.003907c.153268-.383797.518827-.630859.931641-.630859z"/></svg>